<svg width="27" height="26" viewBox="0 0 27 26" fill="none" xmlns="http://www.w3.org/2000/svg">
<path d="M25.954 6.17106L20.204 0.42106C20.0705 0.287568 19.912 0.181676 19.7376 0.10943C19.5632 0.0371845 19.3763 0 19.1875 0C18.9987 0 18.8118 0.0371845 18.6374 0.10943C18.463 0.181676 18.3045 0.287568 18.171 0.42106L0.921008 17.6711C0.787526 17.8046 0.681643 17.963 0.609406 18.1374C0.53717 18.3118 0.499993 18.4988 0.5 18.6876V24.4376C0.5 24.8188 0.65145 25.1844 0.921034 25.454C1.19062 25.7236 1.55625 25.8751 1.9375 25.8751H7.6875C7.87628 25.8751 8.06321 25.8379 8.23762 25.7656C8.41203 25.6934 8.5705 25.5875 8.70399 25.454L25.954 8.20404C26.0875 8.07056 26.1934 7.91209 26.2656 7.73768C26.3379 7.56327 26.3751 7.37633 26.3751 7.18755C26.3751 6.99877 26.3379 6.81184 26.2656 6.63743C26.1934 6.46302 26.0875 6.30455 25.954 6.17106ZM7.0922 23.0001H3.375V19.283L14.875 7.78304L18.592 11.5001L7.0922 23.0001ZM20.625 9.46707L16.908 5.75005L19.1875 3.47054L22.9047 7.18755L20.625 9.46707Z" fill="#FDFDFD"/>
</svg>
